<?xml version="1.0" standalone="no"?>
<!DOCTYPE svg PUBLIC "-//W3C//DTD SVG 20010904//EN" "http://www.w3.org/TR/2001/REC-SVG-20010904/DTD/svg10.dtd">
<svg version="1.0" xmlns="http://www.w3.org/2000/svg" width="591.000000pt" height="591.000000pt"
    viewBox="0 0 591.000000 591.000000" preserveAspectRatio="xMidYMid meet">

    <g transform="translate(0.000000,591.000000) scale(0.100000,-0.100000)" fill="#000000" stroke="none">
        <path d="M0 2955 l0 -2955 2953 2 2952 3 3 2953 2 2952 -2955 0 -2955 0 0
-2955z m3270 2130 c450 -71 839 -262 1159 -570 358 -344 572 -757 647 -1246
24 -151 24 -462 0 -608 -19 -122 -62 -309 -76 -331 -9 -13 -11 -13 -20 0 -7
12 -12 12 -22 2 -17 -17 -45 -15 -56 4 -8 15 -11 14 -24 -5 -14 -19 -17 -20
-28 -6 -11 13 -15 13 -22 3 -6 -10 -10 -10 -18 2 -9 13 -12 13 -21 -2 -11 -19
-59 -25 -59 -7 0 6 -8 8 -19 4 -12 -4 -21 0 -26 12 -7 17 -7 17 -14 0 -6 -15
-9 -16 -25 -4 -14 10 -17 21 -11 45 6 27 9 30 25 22 27 -15 33 4 10 33 -17 21
-19 34 -13 90 6 63 5 67 -24 96 -31 31 -44 36 -124 46 -81 10 -148 97 -101
131 15 11 14 12 -8 13 -71 3 -99 7 -106 14 -14 13 -27 7 -15 -7 8 -10 10 -30
6 -60 -5 -28 -3 -46 2 -46 6 0 10 -13 11 -29 1 -31 36 -147 51 -165 11 -14 31
-107 31 -145 0 -33 -24 -59 -35 -40 -6 8 -10 7 -17 -5 -10 -18 -53 -22 -63 -5
-4 6 -13 8 -20 5 -7 -2 -16 3 -20 12 -6 16 -7 16 -16 -1 -8 -14 -14 -16 -25
-6 -11 9 -14 8 -14 -7 0 -17 -1 -17 -13 0 -12 16 -14 16 -26 2 -16 -20 -31
-12 -31 16 l0 21 -24 -22 c-21 -20 -24 -20 -30 -5 -6 16 -7 16 -19 -1 -8 -9
-22 -16 -33 -13 -23 4 -32 52 -33 174 -1 69 2 84 19 99 11 10 20 24 20 32 0 7
9 13 21 13 29 0 59 18 59 35 0 8 -5 15 -11 15 -20 0 -51 90 -46 134 6 53 30
146 38 146 4 0 12 -7 19 -15 17 -21 48 -19 46 3 -1 13 8 18 34 20 88 6 102 12
97 37 -3 20 3 29 29 45 42 24 42 31 5 53 -41 24 -93 98 -143 202 l-42 89 -2
180 c-1 194 -5 213 -61 297 -24 37 -53 59 -95 75 -19 7 -25 24 -8 24 33 0 -9
101 -57 138 -24 17 -80 15 -114 -5 -37 -22 -41 -36 -24 -70 8 -15 15 -40 15
-54 0 -15 7 -30 15 -33 13 -4 14 -16 9 -56 -6 -46 -5 -50 14 -50 21 0 21 0 -3
-45 -13 -25 -27 -67 -30 -93 -11 -77 -14 -84 -38 -76 -44 13 -50 28 -51 132
-1 83 -4 103 -20 121 -26 29 -71 27 -101 -4 -39 -38 -29 -95 17 -95 23 0 23
19 1 35 -17 13 -17 14 0 33 28 30 55 34 72 9 20 -28 22 -197 2 -197 -14 0 -16
-39 -3 -80 4 -14 -2 -223 -13 -464 -12 -241 -21 -493 -21 -561 0 -170 -9 -248
-26 -234 -11 9 -18 8 -29 -1 -19 -16 -45 -6 -45 16 0 15 -4 14 -24 -5 -16 -15
-26 -19 -31 -11 -5 7 -11 8 -19 1 -9 -7 -16 -7 -24 1 -8 8 -13 7 -18 -5 -7
-19 -49 -23 -59 -6 -4 6 -13 8 -20 5 -7 -2 -16 3 -20 12 -6 16 -7 16 -16 -1
-8 -14 -14 -16 -25 -6 -11 9 -14 8 -14 -7 -1 -18 -1 -18 -12 0 -10 18 -11 18
-24 2 -16 -22 -34 -13 -34 17 -1 22 -1 22 -21 -2 -19 -23 -20 -23 -33 -6 -12
16 -13 16 -19 1 -9 -22 -39 -20 -59 3 -14 17 -14 29 4 147 13 91 26 144 45
179 27 53 73 188 73 217 0 9 6 18 12 20 8 3 12 21 12 46 -1 27 3 42 12 44 12
3 12 7 0 30 -13 24 -12 27 5 31 29 8 33 33 16 104 -12 49 -13 71 -5 89 14 29
6 39 -19 25 -11 -5 -44 -7 -75 -4 -51 5 -58 3 -79 -21 -12 -14 -30 -26 -40
-26 -9 0 -27 -9 -40 -20 l-24 -19 33 -1 c31 0 42 -13 22 -25 -7 -4 -7 -12 0
-25 13 -25 13 -30 -5 -30 -8 0 -15 -7 -15 -15 0 -8 -9 -15 -20 -15 -12 0 -22
-9 -26 -22 -11 -43 -67 -68 -175 -78 -136 -13 -219 -52 -254 -120 -18 -36 -20
-169 -3 -251 l11 -56 -37 -47 c-34 -40 -36 -47 -20 -53 10 -3 30 1 46 10 27
16 28 15 28 -7 0 -13 3 -44 6 -70 6 -40 5 -46 -10 -40 -9 4 -16 1 -16 -6 0 -9
-7 -7 -21 6 -12 11 -19 13 -17 5 7 -28 -26 -34 -70 -13 -23 11 -44 16 -47 12
-3 -5 -12 -7 -20 -3 -9 3 -15 -1 -15 -8 0 -10 -3 -10 -12 -1 -9 9 -16 8 -29
-4 -16 -14 -18 -14 -28 4 -6 11 -7 23 -3 28 4 5 -5 -1 -19 -14 -23 -20 -27
-21 -33 -7 -5 15 -7 15 -22 0 -18 -18 -50 -16 -48 3 1 6 2 34 3 61 1 45 3 48
25 44 35 -7 39 10 11 51 -29 42 -29 49 -13 110 10 38 9 48 -6 70 -27 41 -72
64 -145 71 -58 6 -71 11 -106 44 -41 38 -56 81 -29 81 8 0 14 5 14 10 0 6 -8
10 -19 10 -10 0 -24 7 -31 15 -8 10 -27 15 -49 14 -20 -1 -44 2 -53 6 -19 8
-25 -9 -8 -20 6 -4 8 -26 4 -56 -5 -35 -3 -49 5 -49 8 0 10 -8 6 -20 -4 -12
-2 -20 5 -20 6 0 8 -5 4 -11 -3 -6 -2 -21 3 -32 13 -30 52 -143 68 -198 18
-65 30 -184 17 -176 -5 4 -12 -3 -15 -14 -7 -27 -30 -20 -37 12 l-6 24 -13
-24 c-12 -23 -15 -23 -26 -8 -11 15 -14 16 -25 2 -18 -21 -39 -19 -48 6 l-8
20 -18 -20 c-14 -15 -22 -18 -32 -10 -8 7 -14 7 -19 -1 -5 -8 -11 -8 -20 0 -9
7 -16 6 -25 -5 -14 -17 -46 -20 -55 -4 -4 6 -13 8 -20 5 -7 -2 -16 3 -20 12
-6 16 -7 16 -16 -1 -8 -14 -14 -16 -25 -6 -11 9 -14 8 -14 -7 -1 -16 -3 -15
-15 6 -12 22 -14 23 -20 8 -13 -32 -42 -20 -36 15 2 14 -18 7 -28 -10 -8 -14
-12 -15 -22 -6 -9 9 -17 8 -34 -3 -21 -14 -24 -13 -38 6 l-15 21 -16 -22 c-12
-17 -19 -20 -27 -12 -6 6 -17 9 -24 7 -7 -3 -16 0 -20 6 -4 6 -13 2 -25 -12
-16 -20 -22 -21 -39 -11 -11 7 -26 13 -32 13 -7 0 -18 8 -25 18 -13 16 -13 16
-14 -2 0 -13 -5 -16 -17 -12 -9 4 -19 2 -23 -4 -8 -12 -51 159 -76 295 -21
123 -30 414 -15 554 62 591 364 1130 837 1492 303 233 698 389 1084 428 130
13 403 6 530 -14z m404 -1869 c2 -280 4 -317 19 -334 14 -15 17 -40 17 -137
l0 -118 45 6 c35 5 45 4 45 -8 0 -8 8 -22 19 -32 28 -27 55 -149 41 -184 -12
-28 -71 -64 -102 -61 -10 0 -18 -4 -18 -9 0 -6 -9 -7 -20 -4 -13 4 -20 2 -20
-7 -1 -9 -5 -7 -14 5 -13 16 -14 16 -19 -4 -7 -27 -29 -20 -38 12 -4 13 -8 69
-8 124 -2 108 41 1076 47 1070 2 -2 4 -145 6 -319z m-679 -748 c-8 -140 -25
-167 -25 -41 0 101 8 153 23 153 6 0 7 -39 2 -112z m-288 85 c4 -9 -1 -37 -9
-61 -14 -38 -14 -50 -3 -81 12 -34 11 -39 -11 -64 -21 -25 -24 -25 -34 -9 -9
16 -11 16 -20 0 -16 -26 -39 -22 -51 8 -14 38 5 86 57 145 24 27 44 56 44 64
0 20 19 19 27 -2z m215 -28 c4 -22 7 -77 7 -123 1 -89 -11 -108 -51 -83 -10 6
-23 9 -28 6 -6 -4 -13 1 -16 9 -8 21 -24 20 -24 0 0 -14 -3 -14 -16 -3 -12 10
-17 10 -23 0 -6 -8 -10 -2 -15 19 -13 66 -6 94 35 158 41 62 42 63 83 60 39
-3 41 -5 48 -43z m-1063 -102 c-1 -100 -6 -93 -11 15 -2 39 0 72 4 72 4 0 7
-39 7 -87z m108 48 c25 -37 29 -81 12 -130 -11 -32 -23 -39 -34 -21 -3 6 -13
10 -22 10 -9 0 -22 8 -29 18 -14 18 -18 100 -8 140 10 35 53 26 81 -17z m63
30 c0 -4 14 -22 30 -39 17 -18 30 -40 30 -49 0 -10 2 -27 5 -38 6 -26 -19 -60
-37 -49 -7 5 -20 9 -28 9 -15 0 -16 9 -10 90 1 17 -1 42 -5 58 -5 17 -3 27 4
27 6 0 11 -4 11 -9z m2382 -101 c4 -82 -6 -93 -16 -17 -8 71 -8 87 3 87 5 0
11 -32 13 -70z m87 31 c25 -35 28 -91 6 -91 -8 0 -15 -4 -15 -10 0 -18 -39
-11 -50 9 -5 11 -10 42 -10 70 0 47 2 51 24 51 16 0 32 -11 45 -29z m61 20 c0
-4 11 -20 25 -35 28 -30 32 -63 12 -91 -15 -20 -37 -13 -37 11 0 8 -3 13 -8
10 -4 -2 -8 22 -8 55 0 32 3 59 8 59 4 0 8 -4 8 -9z m-1840 -117 c0 -8 -4 -12
-10 -9 -5 3 -10 13 -10 21 0 8 5 12 10 9 6 -3 10 -13 10 -21z m-1208 -164 c48
-14 51 -21 44 -83 -10 -80 -16 -85 -73 -64 -26 9 -58 17 -70 17 -24 0 -32 -18
-10 -24 63 -18 117 -44 146 -72 33 -30 36 -37 36 -87 0 -94 -60 -151 -170
-162 -73 -8 -188 9 -206 31 -13 16 -3 140 12 150 6 3 32 -3 59 -15 55 -24 103
-31 108 -16 2 6 -23 20 -55 33 -34 13 -74 38 -94 58 -31 32 -34 41 -34 94 0
68 22 100 90 131 45 21 157 25 217 9z m295 -12 c4 -7 6 -43 5 -80 l-2 -68 45
0 44 0 3 78 3 77 78 3 c49 2 84 -1 93 -9 11 -9 13 -52 11 -228 l-2 -216 -55
-6 c-30 -4 -72 -4 -92 -2 l-38 6 0 67 0 67 -42 -2 -43 -1 -3 -68 -3 -67 -92 3
-92 3 -1 215 c0 123 3 220 9 228 13 17 163 17 174 0z m673 -3 c10 -6 -1 -108
-13 -123 -8 -10 -31 -13 -81 -10 -47 2 -71 -1 -73 -9 -3 -9 19 -13 74 -15 l78
-3 0 -60 0 -60 -78 -3 c-106 -4 -100 -25 9 -32 l79 -5 6 -55 c3 -30 2 -60 -3
-66 -5 -8 -61 -10 -175 -8 -91 2 -167 5 -169 7 -3 2 -6 295 -5 399 l1 47 53 3
c63 5 287 -1 297 -7z m373 -9 c119 -59 124 -234 8 -307 -35 -23 -57 -29 -97
-29 l-53 0 -3 -51 -3 -50 -80 -3 c-44 -1 -86 -1 -92 2 -10 3 -13 58 -13 227 0
204 2 224 18 229 9 2 76 4 147 3 104 -2 138 -6 168 -21z m305 -58 l3 -78 42 0
42 0 2 72 c1 39 6 75 11 80 5 5 44 8 88 6 l79 -3 3 -226 2 -226 -62 -6 c-35
-3 -75 -3 -90 0 -29 6 -31 12 -32 102 -1 32 -2 34 -43 36 l-43 3 0 -70 0 -69
-92 3 -93 3 -3 219 c-2 169 1 221 10 228 7 4 49 7 93 6 l80 -3 3 -77z m654 72
c15 0 18 -9 18 -51 0 -83 -9 -91 -93 -87 -50 2 -72 -1 -75 -10 -3 -9 16 -12
72 -12 41 0 78 -5 81 -10 4 -6 3 -35 0 -65 l-7 -55 -74 0 c-58 0 -74 -3 -74
-15 0 -11 18 -15 83 -17 l82 -3 0 -65 0 -65 -169 2 c-93 1 -173 6 -178 11 -5
5 -7 105 -6 223 l3 214 55 6 c30 3 102 4 160 2 57 -2 112 -3 122 -3z m405 -18
c24 -12 50 -33 59 -47 37 -57 26 -156 -24 -202 l-25 -23 37 -69 c20 -38 36
-73 36 -78 0 -12 -135 -25 -167 -17 -14 4 -28 24 -44 65 -13 32 -26 59 -29 59
-3 0 -5 -26 -5 -57 l0 -58 -92 -3 -93 -3 0 224 c0 123 3 227 8 231 4 4 72 6
152 4 126 -3 151 -7 187 -26z m441 -1 c173 -88 156 -358 -27 -420 -19 -6 -91
-11 -161 -11 -107 0 -129 3 -134 16 -11 28 -7 404 5 425 10 19 18 20 144 16
107 -4 140 -9 173 -26z m-2368 -574 c0 -3 56 -197 65 -226 5 -17 2 -21 -14
-21 -15 0 -22 9 -27 35 -6 33 -9 35 -45 35 -36 0 -39 -2 -45 -35 -4 -25 -11
-35 -25 -35 -11 0 -19 3 -19 6 0 6 56 203 65 232 4 10 45 19 45 9z m217 -12
c49 -35 53 -150 6 -205 -22 -26 -31 -30 -79 -30 l-54 0 0 125 0 125 53 0 c31
0 61 -6 74 -15z m115 -82 l25 -98 12 45 c34 129 42 150 56 150 20 0 20 -7 -17
-137 -28 -99 -34 -114 -52 -111 -16 2 -25 22 -47 103 -43 155 -42 145 -21 145
15 0 23 -19 44 -97z m256 85 c-3 -7 -23 -14 -46 -16 -41 -3 -42 -4 -42 -38 0
-33 1 -34 41 -34 33 0 40 -3 37 -17 -2 -13 -14 -19 -41 -21 -36 -3 -37 -4 -37
-42 0 -38 0 -39 42 -42 23 -2 43 -9 46 -15 3 -10 -13 -13 -57 -13 l-61 0 0
125 0 125 61 0 c44 0 60 -3 57 -12z m126 -75 l45 -88 0 88 c1 80 3 87 21 87
19 0 20 -7 20 -125 0 -124 0 -125 -23 -125 -20 0 -31 16 -70 97 l-47 97 0 -97
c0 -80 -3 -97 -15 -97 -13 0 -15 21 -15 125 0 118 1 125 20 125 15 0 31 -22
64 -87z m256 72 c0 -9 -9 -15 -25 -15 l-25 0 0 -110 c0 -103 -1 -110 -20 -110
-19 0 -20 7 -20 109 l0 110 -27 3 c-14 2 -28 9 -31 16 -3 9 16 12 72 12 61 0
76 -3 76 -15z m60 -69 c0 -108 10 -136 49 -136 37 0 41 11 41 126 0 87 1 94
20 94 19 0 20 -7 20 -95 0 -111 -14 -150 -58 -160 -36 -7 -77 8 -91 34 -6 11
-11 65 -11 120 0 83 3 101 15 101 12 0 15 -16 15 -84z m292 67 c23 -21 24 -80
1 -105 -16 -18 -15 -21 5 -64 26 -53 27 -64 7 -64 -8 0 -26 23 -40 50 -14 28
-32 50 -40 50 -11 0 -15 -12 -15 -50 0 -38 -4 -50 -15 -50 -13 0 -15 21 -15
125 l0 125 47 0 c29 0 53 -6 65 -17z m178 2 c0 -11 -11 -15 -40 -15 -39 0 -40
-1 -40 -34 0 -33 2 -35 38 -38 25 -2 37 -8 37 -18 0 -10 -12 -16 -37 -18 -37
-3 -38 -4 -38 -43 0 -39 0 -39 40 -39 29 0 40 -4 40 -15 0 -12 -13 -15 -55
-15 l-55 0 0 125 0 125 55 0 c42 0 55 -3 55 -15z" />
        <path d="M2475 4694 c22 -42 112 -98 200 -123 146 -43 136 -36 91 -56 l-39
-16 22 -22 c32 -33 92 -29 130 7 28 27 29 30 13 42 -15 11 -14 14 13 24 16 6
55 17 85 24 30 8 74 26 97 41 43 28 53 46 15 26 -56 -30 -281 -46 -332 -24
-19 8 -73 23 -120 33 -47 10 -109 29 -137 44 l-52 26 14 -26z" />
        <path d="M2000 4363 c0 -6 32 -34 70 -62 72 -54 82 -67 53 -73 -32 -6 14 -38
55 -38 44 0 72 14 48 23 -32 12 -15 24 62 42 73 18 108 33 98 42 -2 2 -21 0
-42 -6 -22 -5 -70 -12 -108 -15 -57 -4 -74 -1 -95 13 -14 10 -42 26 -61 35
-19 8 -45 23 -57 32 -13 9 -23 12 -23 7z" />
        <path d="M3120 4308 c-64 -34 -70 -36 -130 -37 -33 -1 -41 -4 -30 -11 8 -5 29
-10 46 -10 19 0 34 -6 38 -15 5 -15 37 -21 49 -8 4 3 2 12 -4 19 -8 9 -2 17
24 29 45 21 96 68 70 64 -5 -1 -33 -15 -63 -31z" />
        <path d="M1735 3910 c-60 -58 -101 -90 -115 -90 -46 0 -93 -36 -190 -145 -118
-134 -142 -153 -207 -161 -44 -6 -56 -15 -138 -93 -49 -48 -101 -95 -115 -104
-19 -13 -16 -13 15 2 22 11 64 40 94 65 92 76 150 87 137 25 l-6 -31 33 19
c17 10 46 41 64 68 59 91 93 135 119 151 34 23 46 8 33 -40 -15 -54 -4 -56 19
-3 13 29 31 51 51 61 17 9 40 33 51 54 27 52 47 73 110 120 30 22 73 58 95 81
21 23 45 41 52 41 20 0 43 -55 43 -101 0 -30 -8 -54 -26 -80 l-26 -38 33 -29
c30 -27 33 -35 38 -103 5 -66 8 -74 27 -77 19 -3 23 -12 29 -77 4 -41 4 -79 0
-85 -3 -5 -2 -10 4 -10 6 0 28 24 50 53 47 65 121 101 225 112 38 4 86 13 106
20 41 15 60 6 60 -27 0 -35 19 -17 49 47 24 50 44 75 88 110 32 25 65 45 73
45 8 0 41 -29 73 -65 56 -63 100 -92 58 -39 -11 15 -18 30 -15 35 10 16 51 9
87 -15 19 -13 39 -20 43 -16 21 21 144 -69 144 -104 0 -9 -21 -39 -47 -66 -27
-27 -56 -58 -65 -69 -30 -35 0 -23 45 17 23 21 63 53 89 72 30 21 67 62 99
111 39 60 57 79 74 79 27 0 49 -24 41 -45 -17 -45 53 13 86 72 16 29 34 53 39
53 5 0 9 -33 9 -72 0 -82 3 -88 50 -123 24 -18 40 -23 58 -18 20 5 30 0 49
-23 20 -25 23 -26 23 -9 0 31 -13 45 -68 70 -65 30 -78 53 -62 111 12 40 11
46 -15 89 -14 25 -32 44 -38 42 -7 -2 -25 -27 -41 -56 -15 -29 -34 -55 -42
-58 -8 -3 -31 2 -52 10 -48 19 -69 10 -116 -47 -34 -42 -81 -76 -104 -76 -5 0
-29 15 -53 34 -24 18 -75 44 -114 56 -81 26 -137 53 -181 86 -17 13 -34 24
-39 24 -4 0 -25 -16 -46 -35 -22 -19 -49 -35 -62 -35 -12 0 -48 -23 -80 -50
-32 -28 -60 -50 -62 -50 -2 0 -12 16 -24 35 -17 29 -41 45 -123 84 -93 43
-110 56 -172 125 -40 46 -87 86 -115 100 -25 13 -57 36 -70 50 -14 14 -29 26
-34 26 -5 0 -51 -40 -102 -90z" />
        <path d="M4539 3618 c-27 -54 -34 -58 -70 -44 -28 10 -32 8 -73 -37 -24 -26
-50 -47 -58 -47 -8 0 -36 11 -62 25 -26 14 -52 25 -59 25 -7 -1 2 -8 18 -17
42 -22 85 -64 85 -83 0 -9 -12 -27 -26 -41 -26 -24 -54 -66 -37 -56 35 22 127
117 149 154 19 34 31 43 47 41 13 -2 21 -10 21 -20 -2 -26 33 0 51 39 25 52
35 49 35 -10 0 -43 5 -58 23 -75 13 -12 33 -22 44 -22 11 0 27 -7 34 -16 12
-15 14 -14 19 2 5 14 10 11 28 -18 12 -20 33 -43 46 -52 21 -13 25 -13 30 -1
8 22 23 18 54 -14 23 -25 36 -30 90 -33 l62 -4 -71 37 c-88 46 -101 58 -152
137 -35 55 -44 62 -64 57 -35 -8 -60 10 -88 65 -14 28 -32 50 -40 50 -8 0 -24
-19 -36 -42z" />
        <path d="M1940 1950 c0 -6 7 -10 15 -10 8 0 15 2 15 4 0 2 -7 6 -15 10 -8 3
-15 1 -15 -4z" />
        <path d="M1771 1924 c0 -11 3 -14 6 -6 3 7 2 16 -1 19 -3 4 -6 -2 -5 -13z" />
        <path d="M1965 1910 c3 -5 12 -7 20 -3 21 7 19 13 -6 13 -11 0 -18 -4 -14 -10z" />
        <path d="M2225 1970 c-4 -6 -1 -9 5 -8 19 5 20 -31 2 -42 -10 -5 -12 -10 -6
-10 6 0 17 7 24 15 7 8 9 15 4 15 -5 0 -4 4 3 8 9 6 7 11 -7 20 -12 7 -21 8
-25 2z" />
        <path d="M2708 1989 c-6 -36 11 -47 48 -31 39 19 24 62 -22 62 -17 0 -23 -7
-26 -31z" />
        <path d="M2610 1930 c0 -5 5 -10 11 -10 5 0 7 5 4 10 -3 6 -8 10 -11 10 -2 0
-4 -4 -4 -10z" />
        <path d="M3085 1950 c3 -5 8 -10 11 -10 2 0 4 5 4 10 0 6 -5 10 -11 10 -5 0
-7 -4 -4 -10z" />
        <path d="M3277 1931 c-4 -17 -3 -21 5 -13 5 5 8 16 6 23 -3 8 -7 3 -11 -10z" />
        <path d="M3065 1920 c4 -6 11 -8 16 -5 14 9 11 15 -7 15 -8 0 -12 -5 -9 -10z" />
        <path d="M3318 1913 c7 -3 16 -2 19 1 4 3 -2 6 -13 5 -11 0 -14 -3 -6 -6z" />
        <path d="M3580 1970 c8 -5 11 -10 6 -10 -5 0 -3 -7 4 -15 10 -12 8 -16 -11
-24 -16 -6 -18 -10 -8 -10 18 -1 37 17 37 34 0 14 -19 35 -32 35 -6 0 -4 -5 4
-10z" />
        <path d="M4052 1993 c3 -25 7 -28 33 -25 37 4 50 16 42 36 -4 11 -19 16 -42
16 -34 0 -36 -2 -33 -27z" />
        <path d="M4520 1941 c0 -64 2 -71 20 -71 27 0 60 35 60 64 0 29 -27 62 -57 71
-22 6 -23 4 -23 -64z" />
        <path d="M4428 1923 c7 -3 16 -2 19 1 4 3 -2 6 -13 5 -11 0 -14 -3 -6 -6z" />
        <path d="M2253 1476 c-10 -45 -10 -46 14 -46 22 0 24 3 18 33 -13 57 -21 60
-32 13z" />
        <path d="M2420 1445 c0 -92 1 -95 23 -95 42 0 67 35 67 95 0 60 -25 95 -67 95
-22 0 -23 -3 -23 -95z" />
        <path d="M3530 1500 c0 -45 16 -58 49 -40 40 21 21 80 -26 80 -20 0 -23 -5
-23 -40z" />
    </g>
</svg>