<?xml version="1.0" standalone="no"?>
<!DOCTYPE svg PUBLIC "-//W3C//DTD SVG 20010904//EN"
 "http://www.w3.org/TR/2001/REC-SVG-20010904/DTD/svg10.dtd">
<svg version="1.0" xmlns="http://www.w3.org/2000/svg"
 width="700.000000pt" height="700.000000pt" viewBox="0 0 700.000000 700.000000"
 preserveAspectRatio="xMidYMid meet">
<metadata>
Created by potrace 1.14, written by Peter Selinger 2001-2017
</metadata>
<g transform="translate(0.000000,700.000000) scale(0.100000,-0.100000)"
fill="#000000" stroke="none">
<path d="M3408 6865 c-2 -2 -55 -5 -118 -9 -456 -24 -923 -152 -1330 -364
-119 -63 -274 -154 -278 -164 -2 -4 -8 -8 -13 -8 -7 0 -128 -82 -194 -132
-148 -111 -356 -303 -479 -443 -44 -49 -83 -92 -86 -95 -15 -12 -162 -212
-217 -295 -170 -255 -316 -561 -401 -840 -32 -104 -83 -295 -87 -330 -2 -11
-10 -58 -19 -105 -8 -47 -18 -107 -22 -135 -3 -27 -8 -61 -10 -75 -22 -170
-22 -613 1 -740 2 -14 6 -47 10 -75 11 -106 43 -264 82 -415 107 -412 307
-824 565 -1164 83 -108 82 -108 178 -215 751 -843 1873 -1252 2990 -1091 176
26 172 25 335 66 577 144 1096 432 1520 843 165 160 281 295 410 476 59 81
182 277 192 302 4 10 9 20 12 23 21 18 163 328 207 455 14 39 29 79 34 90 11
24 64 210 80 280 19 85 20 89 31 140 6 28 12 66 15 85 2 19 6 42 9 50 2 8 7
42 11 75 3 33 8 68 10 79 7 39 17 237 18 351 0 121 -12 373 -18 384 -2 3 -6
33 -10 66 -3 33 -8 72 -11 88 -3 15 -7 38 -9 52 -12 65 -39 196 -53 245 -8 30
-16 64 -18 75 -12 53 -72 232 -115 340 -222 557 -576 1033 -1045 1406 -310
247 -702 454 -1078 569 -167 51 -182 55 -297 79 -131 27 -161 33 -265 46 -27
4 -61 8 -75 10 -85 12 -453 27 -462 20z"/>
</g>
</svg>
